<svg width="27" height="28" viewBox="0 0 27 28" fill="none" xmlns="http://www.w3.org/2000/svg">
  <path id="Vector" d="M27 21L20.0769 28L15.2308 23.1L17.3077 21L20.0769 23.8L24.9231 18.9L27 21ZM2.76923 0C1.23231 0 0 1.246 0 2.8V25.2C0 26.754 1.23231 28 2.76923 28H13.5831C12.8492 26.726 12.4615 25.27 12.4615 23.8C12.4615 23.338 12.5031 22.862 12.5723 22.4H2.76923V19.6H13.5831C14.22 18.48 15.1062 17.5 16.1723 16.8H2.76923V14H19.3846V15.512C19.8415 15.442 20.3123 15.4 20.7692 15.4C21.24 15.4 21.6969 15.442 22.1538 15.512V8.4L13.8462 0M12.4615 2.1L20.0769 9.8H12.4615V2.1Z" fill="#1F2937"/>
</svg>
